<svg xmlns="http://www.w3.org/2000/svg" xmlns:xlink="http://www.w3.org/1999/xlink" width="229px" height="268px" x="0px" y="0px" preserveAspectRatio="none" viewBox="0 0 229 268"><defs><path id="a" fill="#FFF79D" d="M351.25 318.35q-2.85-3.9-4.65-9.6-3.2-8.9-3.9-9.65l-85.8 1.8q0 2.5-3.55 6.75-2.15 3.95-5.7 11.4-6.4 9.95-1.8 14.95 2.85 2.5 9.3-1.4 6.4-3.6 7.45-7.15-.35 6.4-.7 19.6l-.7 13.55q-1.1 6.4 2.1 8.5 3.2 2.15 7.15-.7 2.85-2.5 4.25-6.05 2.15-4.25 2.85-4.6h4.3q2.45.35 7.45.35 8.55.35 26.35.7 3.9 0 4.65.7 1.75 1.8 3.2 9.6 2.85 5 7.45 1.45 3.9-2.85 5.35-7.5.7-2.1 2.85-18.5.35-2.5-.35-8.55-.7-5.7 0-8.55.35 2.15 4.6 6.05 3.6 3.6 6.05 4.65 2.5 1.05 4.65-.35 2.15-1.45 2.5-4.3 0-5.7-5.35-13.15Z"/><path id="c" fill="#FFF79D" d="M409.65 256.05q1.7-11.4-1.5-26.75-.65-4.55-3.55-9.95-2.85-6.4-4.55-9.9l-4.7-9.3q-4.9-7.5-6.4-7.85l-175.2-6.75q-.65 2.15-3.2 3.9-2.85 2.15-4.2 3.2-6.05 6.85-10.75 15.65-9.95 19.65-7.75 37.45 2.15 23.1 12.45 34.55 9.6 10.6 23.85 14.95 24.25 8.1 52.7 10.3l27.1.65q14.15-1.35 32-2.5 5.7-.7 16.35-2.4l9.25-1.5q4.35-1 13.15-3.2 19.65-9.9 25.35-20.2 8.1-12.9 9.6-20.35Z"/><path id="e" fill="#FFF" d="M270.45 246.75q5.3-9.95 1.05-23.5-2.5-7.1-15.3-11.35-13.55-2.85-23.15-1.45-14.95 2.85-18.85 10.35-4.3 8.15-2.85 16.35 1.4 8.55 8.55 14.25 10.65 9.25 28.8 7.85 6.05-.75 12.5-3.95 6.75-3.55 9.25-8.55Z"/><path id="g" fill="#004C85" d="M253.35 235.4q.7-7.85-1.45-15.35-2.85-9.95-9.95-8.9v.35l-2.5-.7q-1.75 0-5.7-.35-3.55-.35-5.7 0-4.95.7-10.3 5-5 4.25-7.1 8.55-4.3 9.95.35 19.55 4.6 10 15.65 12.5 10.3 2.45 13.5 2.85 4.65 0 5.7-3.2 5.7-3.6 7.5-20.3Z"/><path id="h" fill="#FFF" d="M370.85 246.4q3.9-9.25-2.15-20.3-4.3-6.75-17.1-9.95L339.85 214q-5.7-.35-12.1.75-8.2 1.75-13.55 8.15-6.75 8.55-6.4 14.6.35 7.85 6.05 13.9 5.35 5.7 13.2 7.5 12.8 3.55 25.25 0 7.5-2.15 11.05-3.95 5-3.2 7.5-8.55Z"/><path id="j" fill="#004C85" d="M350.9 247.15q1.05-7.5.35-12.5-1.8-10.65-3.9-14.6-.75-1.4-5-4.95-2.85-2.85-4.65-3.2-5.3-2.15-14.95 2.85-8.9 4.6-12.8 13.15-2.85 6.4-1.05 13.55 2.5 8.9 12.45 16 11.05 7.85 19.6 3.9 2.45-1.4 4.95-4.25 3.55-.35 5-9.95Z"/><path id="l" fill="#F4B3AE" d="M148.25 145.8q0-.7-.7-1.2t-1.65-.5q-.95 0-1.6.5-.7.5-.7 1.2t.7 1.2q.65.5 1.6.5 1 0 1.65-.5.7-.5.7-1.2Z"/><path id="m" fill="#F4B3AE" d="M168.35 145.75q0-.7-.7-1.2-.65-.5-1.65-.5-.95 0-1.6.5-.7.5-.7 1.2t.7 1.2q.65.5 1.6.5 1 0 1.65-.5.7-.5.7-1.2Z"/><path id="n" fill="#FFF" d="M228.05 228.6q0-3.55-1.4-6.4-1.05-2.5-2.85-2.5-3.9 0-3.9 8.9 0 3.6 1.05 6.05 1.4 2.85 2.85 2.85 1.8 0 2.85-2.85 1.4-2.45 1.4-6.05Z"/><path id="o" fill="#FFF" d="M322.05 228.6q0-8.9-3.9-8.9-1.8 0-2.85 2.5-1.45 2.85-1.45 6.4 0 3.6 1.45 6.05 1.05 2.85 2.85 2.85 3.9 0 3.9-8.9Z"/><path id="p" fill="#004C85" d="M381.5 133.2q-4.25-15.3-14.6-22.45-5.35-3.55-18.15-5.35-3.55-.7-9.6 0-8.55 1.1-10.7 2.5-2.5 1.8-7.45 10.35-2.85 4.25-5 14.6-1.8 17.45 1.45 30.6-9.3 1.45-13.55 1.45l-9.6.7q-5.7 0-6.8 1.75-1.05-3.2-1.05-18.85 0-14.25-3.55-23.5-4.3-10.7-12.1-14.6-7.15-3.9-21-3.2-10.7.35-19.6 5.35-9.6 5.35-14.6 14.25-4.6 8.55-3.2 21.7.7 7.5.7 23.15l.75 6.05q-2.5 2.85-5 7.85-2.85 5.3-3.2 8.55 3.2 1.4 8.55 1.4h9.25l30.95 4.65q7.85 1.4 23.85 1.05l22.1.7q13.15 0 39.5-1.4 8.55 0 25.3-.75l18.85.75q1.45 0 6.05.35 4.3.35 5.7-.35 1.4-.75 1.4-1.45 0-.35-.7-2.85l-11.75-22.75q-1.4-2.5-1.4-4.3l.7-10.3q0-17.85-2.5-25.65Z"/><path id="b" fill="none" stroke="#004C85" stroke-linecap="round" stroke-linejoin="round" stroke-width="5.4" d="M256.9 300.9q0 2.5-3.55 6.75-2.15 3.9-5.7 11.4-6.4 9.95-1.8 14.95 2.85 2.5 9.25-1.4 6.45-3.6 7.5-7.15-.35 6.4-.7 19.6l-.7 13.5q-1.1 6.45 2.1 8.55 3.2 2.15 7.15-.7 2.85-2.5 4.25-6.05 2.15-4.25 2.85-4.6h4.3q2.45.35 7.45.35 8.55.35 26.35.7 3.9 0 4.6.7 1.8 1.8 3.25 9.6 2.85 5 7.45 1.45 3.9-2.85 5.35-7.5.7-2.1 2.85-18.5.35-2.5-.35-8.55-.75-5.7 0-8.55.35 2.15 4.6 6.05 3.6 3.55 6.05 4.65 2.5 1.05 4.65-.35 2.15-1.45 2.5-4.3 0-5.7-5.35-13.15-2.85-3.95-4.65-9.6-3.2-8.95-3.9-9.65"/><path id="d" fill="none" stroke="#004C85" stroke-linecap="round" stroke-linejoin="round" stroke-width="5.4" d="M213.85 185.55q-.75 2.1-3.25 3.9-2.8 2.15-4.25 3.2-6.05 6.75-10.7 15.65-9.95 19.6-7.8 37.4 2.15 23.15 12.45 34.55 9.6 10.65 23.85 14.95 24.2 8.2 52.7 10.3l27.05.75q20.636-1.051 32.05-2.5 5.7-.7 16.35-2.5l9.25-1.45q4.3-1.05 13.2-3.2 19.55-9.95 25.25-20.3 8.2-12.8 9.65-20.25 1.75-11.4-1.45-26.7-.7-4.65-3.55-10-2.85-6.4-4.65-9.95l-4.6-9.25q-5-7.5-6.4-7.85"/><path id="f" fill="none" stroke="#004C85" stroke-linecap="round" stroke-linejoin="round" stroke-width="5.4" d="M87.301 118.372q-2.492-7.12-15.308-11.394-13.529-2.848-23.14-1.424-14.953 2.849-18.87 10.326-4.271 8.19-2.847 16.379 1.424 8.545 8.544 14.242 10.68 9.257 28.837 7.833 6.052-.712 12.46-3.916 6.764-3.561 9.256-8.546 5.34-9.97 1.068-23.5Z"/><path id="i" fill="none" stroke="#004C85" stroke-linecap="round" stroke-linejoin="round" stroke-width="5.4" d="M184.492 121.22q-4.272-6.764-17.089-9.969l-11.748-2.136q-5.696-.356-12.104.712-8.189 1.78-13.529 8.19-6.764 8.545-6.408 14.598.356 7.833 6.052 13.886 5.34 5.697 13.173 7.477 12.816 3.56 25.276 0 7.476-2.136 11.037-3.917 4.984-3.204 7.476-8.545 3.916-9.257-2.136-20.295Z"/><path id="k" fill="none" stroke="#004C85" stroke-linecap="round" stroke-linejoin="round" stroke-width="5.35" d="M89.793 170.713q.712 4.273 8.188 6.765 4.985 1.424 11.037 1.424 3.56 0 8.188-2.136 5.34-2.493 5.696-6.053"/></defs><use xlink:href="#a" transform="translate(-184.2 -104.9)"/><use xlink:href="#b" transform="translate(-184.2 -104.9)"/><use xlink:href="#c" transform="translate(-184.2 -104.9)"/><use xlink:href="#d" transform="translate(-184.2 -104.9)"/><use xlink:href="#e" transform="translate(-184.2 -104.9)"/><use xlink:href="#f" transform="matrix(.99997 0 0 1 -.277 -.195)"/><use xlink:href="#g" transform="translate(-184.2 -104.9)"/><use xlink:href="#h" transform="translate(-184.2 -104.9)"/><use xlink:href="#i" transform="matrix(.99997 0 0 1 -.277 -.195)"/><use xlink:href="#j" transform="translate(-184.2 -104.9)"/><use xlink:href="#k" transform="matrix(.99997 0 0 1 -.277 -.195)"/><use xlink:href="#l" transform="matrix(7.12018 0 0 7.12115 -999.95 -870.4)"/><use xlink:href="#m" transform="matrix(7.12018 0 0 7.12115 -999.95 -870.4)"/><use xlink:href="#n" transform="translate(-184.2 -104.9)"/><use xlink:href="#o" transform="translate(-184.2 -104.9)"/><use xlink:href="#p" transform="translate(-184.2 -104.9)"/></svg>